<svg xmlns="http://www.w3.org/2000/svg" width="384" height="384.64001" viewBox="0 0 384 384.64001" version="1.1">
   <g transform="translate(0.830413, 1.0730935)">
      <path d="M 0,192.32 V 0 H 192 384 V 192.32 384.64001 H 192 0 Z"
         style="fill: #fdfdfe; stroke: none" />
      <path d="m 38.330641,305.55071 c -19.48012,-26.2603 -32.5735192,-59.3308 -35.8896062,-90.64777 -0.4366164,-4.12338 -0.9753016,-7.20346 -1.1970784,-6.84462 -0.2217767,0.35885 -0.59352613,-3.10747 -0.82610983,-7.70294 -0.44146653,-8.72263 0.12772458,-25.54371 0.82610983,-24.41369 0.2217768,0.35884 0.7518679,-2.57724 1.1779803,-6.52462 C 6.8648038,128.25961 26.788029,87.236463 57.012245,57.012247 87.402067,26.62242 128.21133,6.7848264 169.31806,2.4198126 c 4.00183,-0.4249441 6.98246,-0.9540794 6.62362,-1.1758562 -1.13001,-0.69838524 15.69107,-1.26757636 24.4137,-0.82610982 4.59546,0.23258371 8.06178,0.60433312 7.70294,0.82610982 -0.35884,0.2217768 2.62179,0.7509121 6.62362,1.1758562 41.10673,4.3650138 81.91599,24.2026074 112.30582,54.5924344 30.22421,30.224216 50.14743,71.247363 54.5903,112.404823 0.42611,3.94738 0.95621,6.88346 1.17798,6.52462 0.22178,-0.35885 0.59353,3.10747 0.82611,7.70294 0.44147,8.72263 -0.12772,25.54371 -0.82611,24.41369 -0.22177,-0.35884 -0.76046,2.72124 -1.19708,6.84462 -3.31608,31.31697 -16.40948,64.38747 -35.8896,90.64777 -4.47848,6.03723 -5.82936,6.94637 -5.82936,3.92312 0,-5.4718 -6.15913,-19.926 -12.01377,-28.19382 -12.80055,-18.07673 -36.87196,-34.52955 -63.74405,-43.56912 l -9.2253,-3.10331 -3.6458,3.17621 c -18.73729,16.3239 -37.62259,23.96867 -59.21108,23.96867 -21.58849,0 -40.47379,-7.64477 -59.21108,-23.96867 l -3.6458,-3.17621 -9.2253,3.10331 C 93.045728,246.75046 68.974323,263.20328 56.17377,281.28001 50.31913,289.54783 44.16,304.00203 44.16,309.47383 c 0,3.02325 -1.350882,2.11411 -5.829359,-3.92312 z M 208.64,238.79297 c 13.10659,-3.55671 24.41526,-10.37794 34.31164,-20.69629 11.58505,-12.07902 19.85815,-28.54516 23.08001,-45.93668 1.56377,-8.44122 1.54811,-26.87923 -0.0296,-34.85678 -7.47074,-37.774699 -34.5141,-65.00901 -67.64909,-68.126757 -38.08745,-3.583732 -71.83061,25.02448 -80.35498,68.126757 -1.57773,7.97755 -1.59339,26.41556 -0.0296,34.85678 3.22187,17.39152 11.49496,33.85766 23.08001,45.93668 11.67837,12.17633 24.60415,19.10236 41.35164,22.15749 0.88,0.16053 6.064,0.19051 11.52,0.0666 7.41857,-0.16845 11.13037,-0.55371 14.72,-1.52782 z"
         style="fill: #ccccccff; stroke:none" />
   </g>
</svg>